<?xml version="1.0" encoding="utf-8"?>
<!-- Generator: Adobe Illustrator 25.3.1, SVG Export Plug-In . SVG Version: 6.00 Build 0)  -->
<svg version="1.1" id="Layer_1" xmlns="http://www.w3.org/2000/svg" xmlns:xlink="http://www.w3.org/1999/xlink" x="0px" y="0px"
	 viewBox="0 0 2048 2048" style="enable-background:new 0 0 2048 2048;" xml:space="preserve">
<style type="text/css">
	.st0{fill:#EDEEF2;}
	.st1{fill:#898989;}
	.st2{fill:#3A5C7F;}
	.st3{fill:#FFFFFF;}
	.st4{fill:#5DB4BE;}
	.st5{fill:#037EB7;}
</style>
<g>
	<circle class="st0" cx="1018.94" cy="1021.38" r="582.76"/>
	<g>
		<g>
			<path class="st1" d="M515.53,1479.28c-0.45,0-0.91-0.17-1.25-0.52l-160.69-159.34c-0.7-0.69-0.7-1.82-0.01-2.52
				c0.69-0.7,1.82-0.7,2.52-0.01l160.69,159.34c0.7,0.69,0.7,1.82,0.01,2.52C516.45,1479.11,515.99,1479.28,515.53,1479.28z"/>
			<g>
				<path class="st1" d="M505.62,1486.55c5.25,5.21,13.74,5.18,18.95-0.08c5.21-5.26,5.18-13.74-0.08-18.95
					c-5.25-5.21-13.74-5.18-18.95,0.08C500.33,1472.85,500.36,1481.33,505.62,1486.55z"/>
			</g>
		</g>
		<g>
			<path class="st1" d="M619.76,1728.1c-0.43,0-0.86-0.15-1.2-0.46c-0.73-0.66-0.78-1.79-0.12-2.52l108.04-118.76
				c0.66-0.73,1.79-0.78,2.52-0.12c0.73,0.66,0.78,1.79,0.12,2.52l-108.04,118.76C620.72,1727.91,620.24,1728.1,619.76,1728.1z"/>
			<g>
				<path class="st1" d="M610.29,1716.81c-4.98,5.47-4.58,13.95,0.89,18.93c5.47,4.98,13.95,4.58,18.93-0.89
					c4.98-5.47,4.58-13.95-0.89-18.93S615.27,1711.33,610.29,1716.81z"/>
			</g>
		</g>
		<g>
			<path class="st1" d="M354.84,964.5c-0.25,0-0.51-0.05-0.76-0.17c-0.89-0.42-1.27-1.48-0.85-2.37l70.99-150.94
				c0.42-0.89,1.48-1.27,2.37-0.85c0.89,0.42,1.27,1.48,0.85,2.37l-70.99,150.94C356.15,964.12,355.51,964.5,354.84,964.5z"/>
			<g>
				<path class="st1" d="M437.68,818.09c3.15-6.7,0.27-14.68-6.42-17.83c-6.7-3.15-14.68-0.27-17.83,6.42
					c-3.15,6.7-0.27,14.68,6.42,17.83S434.53,824.78,437.68,818.09z"/>
			</g>
		</g>
		<g>
			<path class="st1" d="M643.4,717.06c-0.37,0-0.74-0.11-1.06-0.35l-215.1-160.07c-0.79-0.59-0.95-1.7-0.37-2.49
				c0.59-0.79,1.7-0.95,2.49-0.37l215.1,160.07c0.79,0.59,0.95,1.7,0.37,2.49C644.48,716.81,643.94,717.06,643.4,717.06z"/>
			<g>
				<path class="st1" d="M436.83,544.86c-5.94-4.42-14.33-3.19-18.75,2.75c-4.42,5.94-3.19,14.33,2.75,18.75
					c5.94,4.42,14.33,3.19,18.75-2.75C444,557.67,442.77,549.27,436.83,544.86z"/>
			</g>
		</g>
		<g>
			<path class="st1" d="M1229.51,549.39c-0.8,0-1.52-0.54-1.73-1.34c-0.24-0.95,0.34-1.92,1.29-2.17l257.71-65.3l24.06-159.33
				c0.15-0.97,1.06-1.64,2.03-1.5c0.97,0.15,1.64,1.06,1.5,2.03l-24.24,160.5c-0.11,0.71-0.63,1.29-1.33,1.46l-258.85,65.59
				C1229.8,549.37,1229.65,549.39,1229.51,549.39z"/>
			<g>
				<path class="st1" d="M1525.76,324.18c1.11-7.32-3.93-14.15-11.25-15.25c-7.32-1.11-14.15,3.93-15.25,11.25
					c-1.1,7.32,3.93,14.15,11.25,15.25C1517.82,336.53,1524.65,331.49,1525.76,324.18z"/>
			</g>
		</g>
		<g>
			<path class="st1" d="M1646.95,518.96c-0.13,0-0.26-0.01-0.39-0.04l-161.87-35.89c-0.96-0.21-1.57-1.16-1.35-2.13
				c0.21-0.96,1.16-1.57,2.13-1.35l161.87,35.89c0.96,0.21,1.57,1.16,1.35,2.13C1648.51,518.4,1647.77,518.96,1646.95,518.96z"/>
			<g>
				<path class="st1" d="M1488.64,468.35c-7.23-1.6-14.38,2.96-15.99,10.18c-1.6,7.23,2.96,14.38,10.18,15.99
					c7.22,1.6,14.38-2.96,15.98-10.18C1500.42,477.11,1495.86,469.95,1488.64,468.35z"/>
			</g>
		</g>
		<g>
			<path class="st1" d="M1653.18,519c-0.12,0-0.25-0.01-0.37-0.04l-142.42-30.24c-0.96-0.2-1.58-1.15-1.37-2.11
				c0.21-0.96,1.15-1.58,2.11-1.37l142.42,30.24c0.96,0.2,1.58,1.15,1.37,2.11C1654.75,518.43,1654.01,519,1653.18,519z"/>
			<g>
				<path class="st1" d="M1649.74,530.19c7.24,1.54,14.36-3.09,15.89-10.33c1.54-7.24-3.09-14.36-10.33-15.89
					c-7.24-1.54-14.36,3.09-15.89,10.33C1637.88,521.54,1642.5,528.65,1649.74,530.19z"/>
			</g>
		</g>
		<g>
			<path class="st1" d="M1228.87,1607.46c-0.79,0-1.52-0.53-1.73-1.34c-0.24-0.95,0.33-1.92,1.28-2.17l286.48-73.65
				c0.95-0.25,1.92,0.33,2.17,1.28c0.24,0.95-0.33,1.92-1.28,2.17l-286.48,73.65C1229.16,1607.45,1229.01,1607.46,1228.87,1607.46z"
				/>
			<g>
				<path class="st1" d="M1518.04,1545.18c7.17-1.84,11.49-9.15,9.64-16.32s-9.15-11.49-16.32-9.64
					c-7.17,1.84-11.49,9.15-9.64,16.32C1503.56,1542.7,1510.87,1547.02,1518.04,1545.18z"/>
			</g>
		</g>
		<g>
			<path class="st1" d="M1700.97,1152.82c-0.11,0-0.23-0.01-0.34-0.03c-0.97-0.19-1.6-1.12-1.41-2.09l66.64-345.88
				c0.19-0.97,1.12-1.6,2.09-1.41c0.97,0.19,1.6,1.12,1.41,2.09l-66.64,345.88C1702.55,1152.22,1701.8,1152.82,1700.97,1152.82z"/>
			<g>
				<path class="st1" d="M1780.64,808.35c1.4-7.27-3.36-14.3-10.62-15.7c-7.27-1.4-14.29,3.36-15.7,10.62
					c-1.4,7.27,3.36,14.29,10.62,15.7C1772.21,820.37,1779.24,815.61,1780.64,808.35z"/>
			</g>
		</g>
	</g>
	<g>
		<g>
			<path class="st1" d="M737.29,1609.35c-0.5,0-0.97-0.21-1.31-0.57c-0.34-0.37-0.51-0.87-0.47-1.37l28.97-316.61
				c-30.09,1.08-380.74,13.71-396.65,15.47c-0.98,0.1-1.86-0.6-1.97-1.58c-0.11-0.98,0.6-1.86,1.58-1.97
				c16.67-1.85,383.34-15,398.94-15.56c0.52-0.02,1.01,0.18,1.36,0.56c0.35,0.37,0.53,0.88,0.48,1.39l-28.97,316.66l450.47-6.08
				l229.01-321.71c0.57-0.8,1.68-0.99,2.49-0.42c0.8,0.57,0.99,1.68,0.42,2.49l-229.53,322.45c-0.33,0.46-0.86,0.74-1.43,0.75
				l-453.36,6.12C737.3,1609.35,737.3,1609.35,737.29,1609.35z"/>
		</g>
		<g>
			<path class="st1" d="M737.29,1609.35c-0.5,0-0.99-0.21-1.35-0.61c-0.65-0.74-0.57-1.87,0.18-2.51l336.55-292.03l-281.51-287.38
				c-0.13-0.13-0.24-0.28-0.32-0.45l-155.5-310.28c-0.3-0.59-0.24-1.3,0.15-1.84c0.39-0.54,1.04-0.82,1.7-0.72l845.8,120.74
				c0.47,0.07,0.9,0.32,1.18,0.71l230.95,314.39c0.44,0.6,0.46,1.4,0.06,2.02c-0.4,0.62-1.14,0.93-1.87,0.78l-443.42-94.07
				l-192.6,256.48l115,286.22c0.37,0.91-0.08,1.95-0.99,2.32c-0.91,0.37-1.95-0.08-2.32-0.99l-114.44-284.83l-336.09,291.63
				C738.12,1609.2,737.7,1609.35,737.29,1609.35z M793.91,1024.51l281.19,287.05l192.64-256.53c0.42-0.55,1.11-0.82,1.8-0.67
				l439.95,93.33l-227.74-310.01L640.06,717.52L793.91,1024.51z"/>
		</g>
		<g>
			<path class="st1" d="M766.44,1290.71c-0.06,0-0.12,0-0.18-0.01c-0.98-0.1-1.7-0.97-1.6-1.95l26-263.37
				c0.09-0.96,0.94-1.65,1.89-1.6l7.13,0.46c0.18-0.15,0.4-0.26,0.63-0.32l454.69-126.43l-27.27-349.74
				c-0.06-0.77,0.38-1.48,1.08-1.78c0.7-0.3,1.52-0.11,2.03,0.47l253.22,288.41c0.4,0.46,0.54,1.1,0.37,1.68
				c-0.18,0.59-0.64,1.04-1.23,1.21l-224.43,62.4l12.15,155.83c0.04,0.52-0.15,1.02-0.51,1.39c-0.36,0.37-0.87,0.56-1.38,0.53
				l-475-30.43l-25.83,261.66C768.12,1290.03,767.35,1290.71,766.44,1290.71z M810.06,1024.91l457.16,29.28l-11.94-153.08
				L810.06,1024.91z M1231.7,552.81l26.8,343.71l221.02-61.46L1231.7,552.81z"/>
		</g>
		<g>
			<path class="st1" d="M1075.27,1316.07c-0.92,0-1.7-0.7-1.77-1.63c-0.08-0.98,0.65-1.84,1.63-1.93l341.45-28.68l-148.06-225.48
				l-501.33,232.19c-0.59,0.27-1.28,0.2-1.81-0.18l-416.33-306.4c-0.65-0.48-0.89-1.32-0.61-2.07c0.29-0.75,1.03-1.22,1.84-1.14
				l437.23,42.88c0.98,0.1,1.7,0.97,1.6,1.95c-0.1,0.98-0.98,1.7-1.95,1.6l-430.78-42.24l410.26,301.94l501.77-232.39
				c0.8-0.37,1.75-0.1,2.24,0.64l150.54,229.27c0.34,0.53,0.39,1.19,0.11,1.76c-0.27,0.57-0.83,0.94-1.45,1l-344.43,28.93
				C1075.37,1316.07,1075.32,1316.07,1075.27,1316.07z"/>
		</g>
		<g>
			<path class="st1" d="M1419.71,1287.15c-0.68,0-1.32-0.39-1.62-1.04c-0.41-0.89-0.02-1.95,0.88-2.36l293.98-134.97
				c0.9-0.41,1.95-0.02,2.36,0.88c0.41,0.89,0.02,1.95-0.88,2.36l-293.98,134.97C1420.21,1287.09,1419.96,1287.15,1419.71,1287.15z"
				/>
		</g>
		<g>
			<path class="st1" d="M1269.16,1057.88c-0.45,0-0.89-0.17-1.24-0.5c-0.71-0.69-0.72-1.81-0.04-2.52l213.57-220.09
				c0.69-0.71,1.81-0.72,2.52-0.04c0.71,0.69,0.72,1.81,0.04,2.52l-213.57,220.09C1270.09,1057.7,1269.63,1057.88,1269.16,1057.88z"
				/>
		</g>
	</g>
	<g>
		<g>
			<circle class="st2" cx="636.94" cy="715.28" r="112.37"/>
			<path class="st3" d="M702.98,688.05v-25.38c0-0.02-0.01-0.03-0.01-0.05c0-0.02,0.01-0.04,0-0.06c-0.01-0.11-0.03-0.22-0.06-0.32
				c-0.01-0.05-0.01-0.1-0.03-0.15c-0.05-0.17-0.12-0.33-0.21-0.48c-0.02-0.03-0.04-0.05-0.05-0.07c-0.08-0.12-0.17-0.24-0.28-0.34
				c-0.05-0.04-0.1-0.08-0.15-0.12c-0.07-0.06-0.14-0.12-0.22-0.17l-25.38-15.14c-0.65-0.39-1.45-0.39-2.1,0l-25.54,15.14
				c-0.08,0.05-0.15,0.12-0.23,0.17c-0.05,0.04-0.1,0.07-0.15,0.12c-0.11,0.11-0.2,0.23-0.29,0.35c-0.01,0.02-0.03,0.04-0.05,0.06
				c-0.09,0.15-0.16,0.31-0.21,0.49c-0.02,0.05-0.02,0.11-0.03,0.16c-0.02,0.11-0.05,0.21-0.06,0.32c0,0.02,0,0.04,0,0.06
				c0,0.02-0.01,0.03-0.01,0.05v11.77h-22.02v-11.77c0-0.02-0.01-0.03-0.01-0.05c0-0.02,0.01-0.04,0-0.06
				c-0.01-0.11-0.03-0.22-0.06-0.32c-0.01-0.05-0.01-0.1-0.03-0.15c-0.05-0.17-0.12-0.33-0.21-0.48c-0.02-0.03-0.04-0.05-0.05-0.07
				c-0.08-0.12-0.17-0.24-0.28-0.34c-0.05-0.04-0.1-0.08-0.15-0.12c-0.07-0.06-0.14-0.12-0.22-0.17l-25.38-15.14
				c-0.65-0.39-1.45-0.39-2.1,0l-25.54,15.14c-0.08,0.05-0.15,0.12-0.23,0.17c-0.05,0.04-0.1,0.07-0.15,0.12
				c-0.11,0.11-0.2,0.23-0.29,0.35c-0.01,0.02-0.03,0.04-0.05,0.06c-0.09,0.15-0.16,0.31-0.21,0.49c-0.02,0.05-0.02,0.11-0.03,0.16
				c-0.02,0.11-0.05,0.21-0.06,0.32c0,0.02,0,0.04,0,0.06c0,0.02-0.01,0.03-0.01,0.05v25.38c0,0.66,0.32,1.28,0.86,1.67l24.68,17.74
				v20.85l-24.53,14.55c-0.09,0.05-0.16,0.12-0.23,0.18c-0.05,0.04-0.1,0.07-0.14,0.11c-0.11,0.11-0.2,0.23-0.29,0.35
				c-0.01,0.02-0.03,0.04-0.05,0.06c-0.09,0.15-0.16,0.31-0.21,0.49c-0.02,0.05-0.02,0.1-0.03,0.16c-0.02,0.11-0.05,0.21-0.06,0.32
				c0,0.02,0,0.04,0,0.06c0,0.02-0.01,0.03-0.01,0.05V770c0,0.66,0.32,1.28,0.86,1.67l25.38,18.24c0.36,0.26,0.78,0.39,1.2,0.39
				c0.03,0,0.05-0.01,0.08-0.01c0.03,0,0.05,0.01,0.08,0.01c0.42,0,0.84-0.13,1.2-0.39l25.38-18.24c0.54-0.39,0.86-1.01,0.86-1.67
				v-9.08h22.02V770c0,0.66,0.32,1.28,0.86,1.67l25.38,18.24c0.36,0.26,0.78,0.39,1.2,0.39c0.03,0,0.05-0.01,0.08-0.01
				c0.03,0,0.05,0.01,0.08,0.01c0.42,0,0.84-0.13,1.2-0.39l25.38-18.24c0.54-0.39,0.86-1.01,0.86-1.67v-25.38
				c0-0.02-0.01-0.03-0.01-0.05c0-0.02,0.01-0.04,0-0.06c-0.01-0.11-0.03-0.22-0.06-0.32c-0.01-0.05-0.01-0.1-0.03-0.15
				c-0.05-0.17-0.12-0.33-0.21-0.49c-0.01-0.02-0.04-0.04-0.05-0.07c-0.08-0.12-0.17-0.24-0.28-0.35c-0.04-0.04-0.09-0.07-0.14-0.11
				c-0.07-0.06-0.14-0.13-0.23-0.18l-24.38-14.55l-0.15-20.49c0-0.11-0.02-0.22-0.04-0.33l24.72-17.77
				C702.66,689.33,702.98,688.71,702.98,688.05z M675.47,760.39l-21.7-15.6l21.78-12.92l21.63,12.91L675.47,760.39z M652.06,666.75
				l21.26,15.71v19.81L652.06,687V666.75z M675.54,649.92l21.63,12.91l-21.71,15.6l-21.7-15.6L675.54,649.92z M598.42,760.39
				l-21.7-15.6l21.78-12.92l21.63,12.91L598.42,760.39z M600.56,682.58l21.26-15.81V687l-21.26,15.28V682.58z M598.5,649.92
				l21.63,12.91l-21.71,15.6l-21.7-15.6L598.5,649.92z M575.02,687v-20.25l21.26,15.71v19.81L575.02,687z M575.02,768.95V748.7
				l21.26,15.71v19.81L575.02,768.95z M600.56,784.23v-19.7l21.26-15.81v20.23L600.56,784.23z M625.93,756.8v-12.18
				c0-0.02-0.01-0.03-0.01-0.05c0-0.02,0.01-0.04,0-0.06c-0.01-0.11-0.03-0.22-0.06-0.32c-0.01-0.05-0.01-0.1-0.03-0.15
				c-0.05-0.17-0.12-0.33-0.21-0.49c-0.01-0.02-0.04-0.04-0.05-0.07c-0.08-0.12-0.17-0.24-0.28-0.35c-0.04-0.04-0.1-0.07-0.14-0.11
				c-0.07-0.06-0.14-0.13-0.23-0.18l-24.37-14.55v-20.97l24.52-17.62c0.54-0.39,0.86-1.01,0.86-1.67v-9.49h22.02v9.49
				c0,0.66,0.32,1.28,0.86,1.67l24.57,17.66c-0.03,0.15-0.06,0.31-0.05,0.47l0.15,20.47l-24.52,14.54
				c-0.09,0.05-0.16,0.12-0.23,0.18c-0.05,0.04-0.1,0.07-0.14,0.11c-0.11,0.11-0.2,0.23-0.29,0.35c-0.01,0.02-0.03,0.04-0.05,0.06
				c-0.09,0.15-0.16,0.31-0.21,0.49c-0.01,0.05-0.02,0.1-0.03,0.16c-0.02,0.11-0.05,0.21-0.06,0.32c0,0.02,0,0.04,0,0.06
				c0,0.02-0.01,0.03-0.01,0.05v12.18H625.93z M652.06,768.95V748.7l21.26,15.71v19.81L652.06,768.95z M677.6,784.23v-19.7
				l21.26-15.81v20.23L677.6,784.23z M677.6,702.28v-19.7l21.26-15.81V687L677.6,702.28z"/>
		</g>
		<g>
			<circle class="st4" cx="350.11" cy="982.53" r="112.02"/>
			<g>
				<g>
					<path class="st3" d="M421.04,1023.92H279.18c-2.16,0-3.9-1.75-3.9-3.9c0-2.16,1.75-3.9,3.9-3.9h141.85c2.16,0,3.9,1.75,3.9,3.9
						C424.94,1022.17,423.19,1023.92,421.04,1023.92z"/>
				</g>
				<g>
					<path class="st3" d="M333.65,1022.27h-43.77v-70.43h43.77V1022.27z M295.3,1016.84h32.92v-59.58H295.3V1016.84z"/>
				</g>
				<g>
					<path class="st3" d="M372.73,1023.01h-45.25V910.86h45.25V1023.01z M334.39,1016.11h31.44v-98.34h-31.44V1016.11z"/>
				</g>
				<g>
					<path class="st3" d="M410.84,1022.63h-44.48v-89.29h44.48V1022.63z M372.5,1016.49h32.21v-77.02H372.5V1016.49z"/>
				</g>
			</g>
		</g>
		<g>
			<circle class="st4" cx="1256.13" cy="1057.62" r="79.25"/>
			<g>
				<path class="st3" d="M1241.06,1041.19h69.11v-21.08h-69.11v-14.14l-42.75,24.68l42.75,24.68V1041.19z M1237.57,1049.29
					l-32.29-18.64l32.29-18.64v11.59h69.11v14.11h-69.11V1049.29z"/>
				<path class="st3" d="M1311.92,1080.78l-42.76-24.68v14.14h-69.11v21.08h69.11v14.14L1311.92,1080.78z M1203.54,1087.84v-14.11
					h69.11v-11.59l32.29,18.64l-32.29,18.64v-11.59H1203.54z"/>
			</g>
		</g>
		<g>
			<circle class="st2" cx="1456.72" cy="830.49" r="132.23"/>
			<path class="st3" d="M1510.05,785.45c-2.58-2.83-5.43-5.41-8.47-7.75c-1.52-1.17-3.1-2.26-4.72-3.28
				c-2.91-1.87-5.97-3.51-9.17-4.9h-0.04c-8.12-3.55-17.04-5.52-26.45-5.52c-29.12,0-53.93,18.82-62.89,44.93
				c-0.78,2.28-1.46,4.61-1.99,6.99c-1.05,4.68-1.6,9.56-1.6,14.56c0,5.72,0.74,11.3,2.09,16.61c0.47,1.83,1.03,3.63,1.66,5.39
				c8.92,25.41,32.87,43.82,61.13,44.48c0.53,0.02,1.07,0.02,1.6,0.02c1.48,0,2.95-0.04,4.41-0.14
				c12.75-0.84,24.55-5.29,34.35-12.34c2.97-2.15,5.76-4.53,8.35-7.12c11.95-12.04,19.38-28.61,19.38-46.9
				C1527.68,813.11,1520.97,797.28,1510.05,785.45z M1504.53,788.55l0.02,0.02c1.37,7.34,2.15,17.59-0.51,28.58
				c-0.88-0.21-1.8-0.33-2.75-0.33c-1.8,0-3.51,0.41-5.04,1.17c-4.2-4.96-9.53-9.66-16.28-13.86c-9.29-5.78-18.27-8.96-26.7-10.31
				c-0.27-1.5-0.84-2.87-1.62-4.1c11.59-9.58,25.49-12.9,34.8-14.01C1493.25,778.85,1499.36,783.2,1504.53,788.55z M1506.95,828.64
				c0,1.56-0.64,2.97-1.64,4l0,0l-1.03,0.82c-0.86,0.55-1.89,0.86-2.99,0.86c-0.72,0-1.39-0.12-2.01-0.37
				c-0.62-0.23-1.17-0.57-1.64-0.98c-1.23-1.05-2.01-2.58-2.01-4.33c0-0.37,0.04-0.74,0.1-1.09c0.43-2.21,2.15-3.96,4.37-4.43
				c0.37-0.1,0.78-0.14,1.19-0.14c0.33,0,0.66,0.02,0.96,0.08c2.4,0.41,4.29,2.34,4.63,4.76
				C1506.93,828.08,1506.95,828.35,1506.95,828.64z M1447.93,864.66c-1.35-5.02-5.95-8.69-11.38-8.69c-0.96,0-1.91,0.12-2.79,0.35
				c-3.03-9.33-4.02-20.53-1.21-33.75c1.23-5.82,3.06-10.93,5.29-15.42c1.19,0.43,2.48,0.66,3.81,0.66c5.15,0,9.51-3.3,11.13-7.89
				c7.53,1.33,15.58,4.27,23.93,9.45c6.15,3.83,11.03,8.1,14.87,12.59c-1.33,1.91-2.11,4.2-2.11,6.68c0,3.88,1.87,7.32,4.76,9.45
				c-3.92,5.33-9.06,10.5-15.77,15.28C1467.82,860.95,1457.47,864.15,1447.93,864.66z M1441.04,871.21
				c-1.03,1.35-2.67,2.24-4.49,2.24c-0.41,0-0.82-0.04-1.21-0.14h-0.02c-2.11-0.47-3.77-2.11-4.27-4.22l0.14-3.1
				c0.33-1,0.94-1.89,1.76-2.56c0.84-0.7,1.89-1.15,3.03-1.27c0.18-0.02,0.37-0.02,0.55-0.02c1.95,0,3.67,0.98,4.7,2.5
				c0.62,0.9,0.96,1.99,0.96,3.16c0,1.05-0.29,2.03-0.78,2.87C1441.31,870.86,1441.19,871.04,1441.04,871.21z M1403.79,848.98v-0.02
				l0,0l0,0c-1.89-5.82-2.91-12.02-2.91-18.48c0-6.23,0.94-12.26,2.73-17.92c0,0,0,0,0-0.02c5.64-4.16,15.07-9.82,27.05-12.28
				c0.49,1.27,1.21,2.42,2.07,3.42c-2.65,5.09-4.78,10.93-6.19,17.61c-3.18,14.91-1.8,27.52,1.89,37.96
				c-0.74,0.7-1.39,1.48-1.91,2.36l0,0C1416.44,858.18,1408.48,852.73,1403.79,848.98z M1446.52,793.08
				c0.18,0.31,0.33,0.64,0.45,0.96c0.23,0.62,0.35,1.27,0.35,1.95c0,1.17-0.35,2.24-0.94,3.14c-1.03,1.52-2.77,2.52-4.72,2.52
				c-0.23,0-0.45-0.02-0.66-0.04c-1.62-0.18-3.01-1.05-3.94-2.32c-0.35-0.47-0.62-1-0.82-1.58v-0.02c-0.16-0.53-0.25-1.11-0.25-1.7
				c0-0.96,0.25-1.89,0.66-2.69c0.98-1.76,2.85-2.97,5-2.97c0.16,0,0.33,0,0.47,0.02C1444,790.52,1445.6,791.56,1446.52,793.08z
				 M1461.2,770.15c4.78,0,9.41,0.55,13.88,1.64c-8.82,2.26-18.97,6.36-27.85,13.78c-1.66-0.88-3.55-1.39-5.58-1.39
				c-5.95,0-10.87,4.39-11.67,10.11c-8.8,1.78-16.4,5.13-22.35,8.51C1417.67,783.42,1437.93,770.15,1461.2,770.15z M1408.32,859.48
				c4.57,2.81,10.15,5.66,16.45,7.77c-0.02,0.18-0.02,0.35-0.02,0.53c0,6.5,5.31,11.81,11.81,11.81c1.05,0,2.07-0.14,3.03-0.41
				c3.34,4.18,6.89,7.67,10.21,10.56C1431.92,886.32,1416.81,874.96,1408.32,859.48z M1461.28,890.83
				c-4.43-2.85-10.77-7.65-16.49-14.62c1.52-1.48,2.65-3.36,3.18-5.48c10.64-0.47,22.23-3.9,34.08-12.34
				c7.81-5.56,13.68-11.67,18.02-17.98c0.39,0.04,0.8,0.06,1.21,0.06c0.16,0,0.33,0,0.49-0.02c3.96,12.55,2.87,24.93,1.09,33.63l0,0
				C1492.04,884.43,1477.42,890.81,1461.28,890.83z M1507.48,838.68c3.38-2.07,5.62-5.8,5.62-10.05c0-3.34-1.39-6.38-3.67-8.53
				c2.13-8.12,2.54-15.93,2.17-22.7c6.27,9.51,9.92,20.87,9.92,33.08c0,13.18-4.24,25.39-11.44,35.31
				C1510.78,857.71,1510.44,848.24,1507.48,838.68z"/>
		</g>
		<g>
			<circle class="st4" cx="1229.51" cy="547.61" r="108.99"/>
			<g>
				<path class="st3" d="M1248.79,517.18h-38.56c-5.27,0-9.57,4.29-9.57,9.57v38.57c0,5.27,4.29,9.56,9.57,9.56h38.56
					c5.27,0,9.57-4.29,9.57-9.56v-38.57C1258.36,521.47,1254.07,517.18,1248.79,517.18z M1252.03,565.31c0,1.79-1.45,3.24-3.24,3.24
					h-38.56c-1.79,0-3.24-1.45-3.24-3.24v-38.57c0-1.79,1.45-3.24,3.24-3.24h38.56c1.79,0,3.24,1.45,3.24,3.24V565.31z"/>
				<path class="st3" d="M1290.36,539.71c1.75,0,3.16-1.42,3.16-3.16s-1.42-3.16-3.16-3.16h-16.44v-12.66h16.44
					c1.75,0,3.16-1.42,3.16-3.16s-1.42-3.16-3.16-3.16h-16.48c-0.35-7.11-6.22-12.79-13.41-12.79h-0.6v-16.44
					c0-1.75-1.42-3.16-3.16-3.16c-1.75,0-3.16,1.42-3.16,3.16v16.44h-12.66v-16.44c0-1.75-1.42-3.16-3.16-3.16
					c-1.75,0-3.16,1.42-3.16,3.16v16.44h-12.66v-16.44c0-1.75-1.42-3.16-3.16-3.16c-1.75,0-3.16,1.42-3.16,3.16v16.44h-12.66v-16.44
					c0-1.75-1.42-3.16-3.16-3.16s-3.16,1.42-3.16,3.16v16.6c-6.28,0.92-11.15,6.18-11.47,12.63h-17.76c-1.75,0-3.16,1.42-3.16,3.16
					s1.42,3.16,3.16,3.16h17.73v12.66h-17.73c-1.75,0-3.16,1.42-3.16,3.16s1.42,3.16,3.16,3.16h17.73v12.66h-17.73
					c-1.75,0-3.16,1.42-3.16,3.16c0,1.75,1.42,3.16,3.16,3.16h17.73v12.66h-17.73c-1.75,0-3.16,1.42-3.16,3.16s1.42,3.16,3.16,3.16
					h17.76c0.33,6.44,5.19,11.69,11.47,12.61v16.62c0,1.75,1.42,3.16,3.16,3.16s3.16-1.42,3.16-3.16v-16.46h12.66v16.46
					c0,1.75,1.42,3.16,3.16,3.16c1.75,0,3.16-1.42,3.16-3.16v-16.46h12.66v16.46c0,1.75,1.42,3.16,3.16,3.16
					c1.75,0,3.16-1.42,3.16-3.16v-16.46h12.66v16.46c0,1.75,1.42,3.16,3.16,3.16c1.75,0,3.16-1.42,3.16-3.16v-16.46h0.6
					c7.18,0,13.05-5.67,13.41-12.76h16.48c1.75,0,3.16-1.42,3.16-3.16s-1.42-3.16-3.16-3.16h-16.44v-12.66h16.44
					c1.75,0,3.16-1.42,3.16-3.16c0-1.75-1.42-3.16-3.16-3.16h-16.44v-12.66H1290.36z M1267.6,576.99c0,3.93-3.19,7.12-7.12,7.12
					h-61.93c-3.93,0-7.12-3.19-7.12-7.12v-61.93c0-3.93,3.19-7.12,7.12-7.12h61.93c3.93,0,7.12,3.19,7.12,7.12V576.99z"/>
			</g>
		</g>
		<g>
			<circle class="st4" cx="747.15" cy="1301.45" r="71.9"/>
			<g>
				<g>
					<path class="st3" d="M712.55,1319.15l-0.89-1.52c-3.4-5.81-5.2-12.46-5.2-19.22c0-9.98,3.84-19.42,10.82-26.59
						c6.55-6.73,15.19-10.76,24.47-11.46v-15.21l42.44,24.5l-42.44,24.5v-14.82c-9.35,1.41-16.42,9.45-16.42,19.08
						c0,3.51,0.95,6.93,2.74,9.89l0.96,1.58L712.55,1319.15z M745.33,1251.36v12.45l-1.73,0.05c-18.82,0.57-33.56,15.75-33.56,34.56
						c0,5.54,1.33,10.99,3.86,15.88l10.23-5.75c-1.55-3.12-2.37-6.59-2.37-10.13c0-12.17,9.53-22.2,21.69-22.84l1.88-0.1v12.49
						l31.71-18.31L745.33,1251.36z"/>
				</g>
				<g>
					<path class="st3" d="M747.82,1354.51l-42.44-24.5l42.44-24.5v15.05c10.34-0.36,18.65-8.88,18.65-19.31
						c0-4.32-1.4-8.4-4.04-11.79l-1.27-1.63l16.61-9.47l0.93,1.36c4.34,6.36,6.64,13.8,6.64,21.53c0,20.84-16.77,37.83-37.52,38.19
						V1354.51z M712.54,1330l31.71,18.31v-12.54l1.84,0.06c0.13,0,0.27,0.01,0.4,0.02c0.22,0.01,0.44,0.02,0.66,0.02
						c19.09,0,34.62-15.53,34.62-34.62c0-6.45-1.77-12.68-5.12-18.13l-10.2,5.82c2.36,3.66,3.6,7.88,3.6,12.31
						c0,12.63-10.27,22.9-22.9,22.9c-0.31,0-0.61-0.02-0.87-0.04c-0.11-0.01-0.22-0.02-0.34-0.02l-1.69-0.09v-12.29L712.54,1330z"/>
				</g>
			</g>
		</g>
		<g>
			<circle class="st2" cx="358.2" cy="1309.24" r="91.5"/>
			<g>
				<path class="st3" d="M405.56,1289.18c0,17.68,0,35.37,0,53.05c-0.07,0.19-0.17,0.38-0.21,0.58c-1.1,5.9-5.29,9.38-11.31,9.38
					c-7.85,0-15.7,0-23.56,0c-16.2,0-32.39,0.01-48.59,0c-5.83,0-10.55-4.3-10.83-10.12c-0.22-4.72-0.09-9.45-0.09-14.18
					c-0.01-12.5-0.01-24.99,0-37.49c0.01-6.75,4.66-11.4,11.38-11.41c1.11,0,2.23-0.09,3.33,0.02c1.18,0.13,1.6-0.37,1.94-1.45
					c6.41-20.08,30.48-28.63,48.11-17.1c6.5,4.25,10.92,10.11,13.25,17.52c0.24,0.76,0.56,1.06,1.36,1.02
					c1.44-0.06,2.88-0.06,4.32-0.01c4.68,0.17,8.02,2.42,9.93,6.67C405.07,1286.75,405.24,1288,405.56,1289.18z M331.26,1284.01
					c-3.05,0-6-0.01-8.96,0c-3.72,0.01-6.28,2.54-6.29,6.28c-0.01,16.86-0.01,33.72,0,50.57c0,3.74,2.56,6.27,6.28,6.27
					c23.93,0,47.86,0,71.79,0c3.84,0,6.31-2.47,6.31-6.33c0-6.04,0-12.09,0-18.13c0-10.85,0.01-21.71,0-32.56
					c0-3.52-2.54-6.06-6.05-6.1c-0.78-0.01-1.56,0-2.34,0c-2.25,0-4.5,0-6.73,0c-2.33-14.46-13.97-23.24-26.09-23.67
					c-5.88-0.21-11.32,1.35-16.17,4.7C336.38,1269.62,332.56,1276.01,331.26,1284.01z"/>
				<path class="st3" d="M349.78,1327.56c0-2.14-0.03-4.27,0.01-6.41c0.02-0.8-0.2-1.34-0.85-1.88c-4.9-4.05-6.73-9.29-5.2-15.41
					c1.52-6.08,5.62-9.79,11.78-11.05c6.65-1.35,13.45,2.21,16.34,8.46c2.84,6.15,1.14,13.61-4.13,17.83
					c-0.72,0.58-1,1.14-0.99,2.05c0.05,3.94,0.03,7.89,0.02,11.83c-0.01,3.94-1.7,5.62-5.64,5.62c-2.18,0-4.36,0.02-6.53-0.01
					c-2.99-0.03-4.8-1.88-4.8-4.88C349.78,1331.67,349.78,1329.61,349.78,1327.56z M361.66,1333.53c0-0.55,0-0.99,0-1.43
					c0-4.27,0.08-8.55-0.04-12.82c-0.05-1.65,0.38-2.58,1.89-3.46c3.92-2.27,5.54-7.06,4.13-11.34c-1.39-4.2-5.61-7.17-9.77-6.88
					c-4.57,0.32-8.33,3.43-9.29,7.69c-1.02,4.49,0.95,8.76,5.18,11.06c0.78,0.43,1.09,0.89,1.09,1.8
					c-0.05,4.64-0.02,9.28-0.02,13.93c0,0.47,0.05,0.95,0.08,1.45C357.18,1333.53,359.31,1333.53,361.66,1333.53z"/>
				<path class="st3" d="M381.04,1283.95c-15.21,0-30.4,0-45.61,0c2.23-11.72,11.46-19.08,21.92-19.41
					C369.15,1264.18,378.92,1272.27,381.04,1283.95z M342.53,1278.85c10.57,0,20.87,0,31.38,0c-3.62-5.8-8.56-9.06-15.25-9.21
					C351.59,1269.49,346.37,1272.77,342.53,1278.85z"/>
			</g>
		</g>
		<g>
			<circle class="st5" cx="1700.96" cy="1151.03" r="108.95"/>
			<g>
				<path class="st3" d="M1701.49,1227.13c-2.22-2.01-54.43-49.59-54.43-78.51c0,0-0.07-6.85-0.1-13.71
					c-0.02-3.44-0.02-6.89-0.01-9.48c0.03-5.56,0.03-7.23,2.78-8.52c0,0,0,0,0,0c29.92-13.88,44.93-38.12,46.55-40.84
					c0.83-1.4,2.39-2.33,4.02-2.33c1.59,0,3.07,0.82,3.92,2.16c19,30.2,44.62,39.8,47.25,40.72c2.01,0.5,3.5,2.32,3.5,4.49v27.46
					c0,28.77-45.11,76.31-47.03,78.32c-0.91,0.95-2.12,1.43-3.35,1.43C1703.49,1228.32,1702.38,1227.93,1701.49,1227.13z
					 M1700.31,1086.68c-6.56,9.02-21.08,25.99-44.09,37.39c-0.04,4.68,0.01,15.07,0.1,24.5c0,19.19,32.04,53.46,48.04,68.59
					c13.91-15.26,41.37-49.35,41.37-68.59v-24.24C1737.94,1121.13,1717.53,1110.94,1700.31,1086.68z M1653.65,1125.31
					C1653.65,1125.31,1653.65,1125.31,1653.65,1125.31L1653.65,1125.31z"/>
			</g>
		</g>
		<g>
			<circle class="st5" cx="796.61" cy="1025.55" r="97.93"/>
			<g>
				<path class="st3" d="M746.85,1004.24c0.39-1.42,0.66-2.89,1.2-4.25c2.29-5.8,7.88-9.55,14.12-9.55c23.27,0,46.54,0,69.82,0
					c8.45,0,15.27,6.83,15.27,15.31c0.01,13.57,0.01,27.14,0,40.7c-0.01,8.5-6.8,15.52-15.26,15.21c-4.86-0.18-8.89,1.07-12.97,3.67
					c-12.1,7.69-24.42,15.02-36.66,22.49c-0.49,0.3-0.99,0.64-1.53,0.76c-1.07,0.24-2.07,0.01-2.71-0.98
					c-0.69-1.05-0.58-2.09,0.13-3.11c2.82-4.05,5.63-8.1,8.45-12.14c2.18-3.14,4.37-6.27,6.54-9.41c0.22-0.32,0.42-0.67,0.74-1.2
					c-0.65,0-1.08,0-1.52,0c-9.99,0-19.98,0-29.97,0c-7.98,0-14.15-5.26-15.43-13.13c-0.04-0.24-0.14-0.47-0.21-0.7
					C746.85,1033.36,746.85,1018.8,746.85,1004.24z M789.6,1077.11c0.06,0.06,0.12,0.12,0.18,0.17c0.42-0.24,0.84-0.47,1.25-0.73
					c8.56-5.22,17.11-10.45,25.66-15.67c2.24-1.37,4.36-3.22,6.8-3.91c2.49-0.7,5.3-0.25,7.97-0.26
					c6.29-0.03,10.69-4.42,10.69-10.73c0-13.24,0-26.48,0-39.72c0-6.41-4.34-10.72-10.77-10.72c-20.56,0-41.12,0-61.68,0
					c-2.55,0-5.1-0.02-7.65,0c-5.44,0.06-9.98,4.38-10.01,9.83c-0.09,13.61-0.13,27.22-0.04,40.83c0.04,6.39,4.48,10.5,10.9,10.5
					c11.64,0,23.27,0,34.91,0c0.49,0,0.99-0.01,1.48,0.05c1.42,0.19,2.36,1.39,2.1,2.8c-0.12,0.62-0.45,1.23-0.82,1.75
					C796.93,1066.6,793.26,1071.85,789.6,1077.11z"/>
				<path class="st3" d="M805.84,1025.67c-0.04,5.17-4.21,9.21-9.43,9.15c-5.06-0.05-9.13-4.28-9.07-9.41
					c0.06-5.07,4.27-9.15,9.39-9.09C801.85,1016.38,805.88,1020.52,805.84,1025.67z M796.57,1029.72c2.27,0.01,4.18-1.83,4.22-4.08
					c0.05-2.26-1.94-4.27-4.21-4.26c-2.24,0.02-4.14,1.93-4.14,4.18C792.44,1027.86,794.27,1029.7,796.57,1029.72z"/>
				<path class="st3" d="M773.59,1016.32c5.09,0.03,9.26,4.24,9.22,9.29c-0.05,5.16-4.23,9.25-9.41,9.22
					c-5.1-0.04-9.16-4.21-9.11-9.35C764.33,1020.34,768.45,1016.29,773.59,1016.32z M773.51,1029.72c2.29,0.01,4.18-1.83,4.21-4.1
					c0.03-2.28-1.95-4.27-4.23-4.24c-2.22,0.03-4.18,2.01-4.16,4.2C769.35,1027.84,771.24,1029.71,773.51,1029.72z"/>
				<path class="st3" d="M819.7,1016.32c5.09,0.01,9.26,4.18,9.26,9.25c-0.01,5.14-4.2,9.28-9.37,9.25
					c-5.11-0.03-9.18-4.17-9.15-9.31C810.45,1020.38,814.56,1016.31,819.7,1016.32z M819.72,1029.72c2.27-0.02,4.15-1.92,4.13-4.17
					c-0.02-2.24-1.93-4.16-4.18-4.17c-2.21-0.01-4.19,1.95-4.21,4.15C815.45,1027.83,817.39,1029.74,819.72,1029.72z"/>
			</g>
		</g>
		<g>
			<circle class="st2" cx="1415.13" cy="1273.04" r="67.61"/>
			<g>
				<g>
					<path class="st3" d="M1428.65,1275.24c-0.65-1.19-1.46-2.17-2.42-2.96c-0.96-0.79-2.03-1.43-3.22-1.91
						c-1.18-0.49-2.38-0.9-3.59-1.24c-1.21-0.34-2.4-0.67-3.57-0.97c-1.17-0.3-2.22-0.66-3.15-1.07c-0.94-0.41-1.71-0.94-2.31-1.57
						c-0.6-0.64-0.95-1.46-1.04-2.47c-0.06-0.64,0-1.25,0.19-1.81c0.19-0.56,0.51-1.05,0.97-1.49c0.46-0.43,1.07-0.79,1.85-1.08
						c0.77-0.29,1.72-0.48,2.84-0.59c1.22-0.11,2.36-0.08,3.41,0.11c1.05,0.18,1.98,0.4,2.79,0.65c0.81,0.25,1.5,0.49,2.07,0.72
						c0.56,0.23,0.98,0.33,1.26,0.31c0.15-0.01,0.28-0.06,0.38-0.15c0.1-0.08,0.18-0.24,0.25-0.48c0.06-0.23,0.09-0.57,0.09-1
						c-0.01-0.43-0.04-0.98-0.1-1.65c-0.05-0.49-0.1-0.93-0.15-1.3c-0.06-0.37-0.12-0.69-0.2-0.96c-0.08-0.26-0.17-0.48-0.29-0.66
						c-0.11-0.17-0.27-0.34-0.47-0.51c-0.2-0.17-0.55-0.34-1.04-0.52c-0.49-0.18-1.04-0.35-1.64-0.5c-0.6-0.15-1.24-0.27-1.92-0.36
						c-0.68-0.09-1.32-0.15-1.93-0.18l0.08-6.15c-0.02-0.24-0.07-0.45-0.16-0.64c-0.08-0.19-0.25-0.33-0.49-0.43
						c-0.25-0.1-0.59-0.16-1.04-0.18c-0.45-0.02-1,0-1.67,0.06c-0.56,0.05-1.01,0.12-1.35,0.19c-0.34,0.08-0.61,0.17-0.8,0.29
						c-0.2,0.12-0.32,0.24-0.39,0.36c-0.06,0.13-0.1,0.27-0.1,0.45l-0.04,6.54c-1.85,0.39-3.48,0.96-4.9,1.7
						c-1.41,0.75-2.58,1.66-3.5,2.75c-0.92,1.08-1.58,2.31-2,3.68c-0.41,1.37-0.55,2.86-0.4,4.47c0.17,1.78,0.57,3.28,1.21,4.49
						c0.64,1.21,1.45,2.21,2.41,3.01c0.96,0.8,2.02,1.45,3.19,1.95c1.16,0.5,2.34,0.92,3.55,1.26c1.2,0.34,2.37,0.66,3.52,0.96
						c1.14,0.3,2.18,0.65,3.11,1.08c0.93,0.42,1.69,0.94,2.27,1.56c0.59,0.62,0.93,1.44,1.03,2.47c0.14,1.55-0.35,2.84-1.49,3.89
						c-1.14,1.05-2.96,1.69-5.48,1.92c-1.61,0.15-3.03,0.12-4.25-0.09c-1.22-0.21-2.27-0.47-3.14-0.78
						c-0.87-0.31-1.59-0.6-2.16-0.87c-0.57-0.27-0.99-0.4-1.27-0.37c-0.21,0.02-0.4,0.09-0.55,0.2c-0.15,0.11-0.27,0.3-0.35,0.57
						c-0.08,0.27-0.13,0.64-0.12,1.12c0,0.48,0.04,1.08,0.1,1.81c0.09,0.95,0.21,1.65,0.36,2.13c0.15,0.47,0.36,0.82,0.63,1.05
						c0.27,0.22,0.66,0.44,1.17,0.66c0.51,0.21,1.11,0.41,1.79,0.6c0.69,0.19,1.45,0.34,2.29,0.47c0.84,0.13,1.72,0.21,2.66,0.26
						l-0.07,6.6c-0.02,0.24,0.01,0.45,0.11,0.64c0.09,0.19,0.26,0.33,0.51,0.42c0.25,0.1,0.58,0.16,1.01,0.18
						c0.42,0.03,0.98,0.01,1.67-0.06c0.54-0.05,0.98-0.12,1.33-0.2c0.35-0.09,0.62-0.18,0.82-0.29c0.2-0.11,0.33-0.23,0.39-0.36
						c0.06-0.14,0.1-0.29,0.1-0.46l0.04-6.96c2.05-0.36,3.89-0.95,5.53-1.75c1.64-0.8,3.01-1.8,4.11-2.98
						c1.1-1.19,1.91-2.55,2.43-4.09c0.52-1.54,0.69-3.24,0.52-5.09C1429.71,1277.89,1429.3,1276.43,1428.65,1275.24z"/>
					<path class="st3" d="M1415.14,1226.08c-25.91,0-46.9,21-46.9,46.9c0,25.91,20.99,46.9,46.9,46.9c25.9,0,46.9-20.99,46.9-46.9
						C1462.04,1247.08,1441.03,1226.08,1415.14,1226.08z M1415.14,1309.68c-20.27,0-36.7-16.43-36.7-36.7
						c0-20.26,16.43-36.69,36.7-36.69c20.26,0,36.69,16.43,36.69,36.69C1451.83,1293.25,1435.4,1309.68,1415.14,1309.68z"/>
				</g>
			</g>
		</g>
		<g>
			<circle class="st5" cx="730.9" cy="1604.35" r="75.49"/>
			<g>
				<polygon class="st3" points="727.8,1618.26 727.8,1551.8 697.64,1601.03 				"/>
				<polygon class="st3" points="730.9,1551.8 730.9,1617.49 761.04,1601.03 				"/>
				<polygon class="st3" points="727.8,1648.35 727.8,1624.63 697.64,1607.56 				"/>
				<polygon class="st3" points="730.9,1648.25 761.04,1605.68 730.9,1624.52 				"/>
			</g>
		</g>
		<g>
			<circle class="st5" cx="1088.36" cy="1309.68" r="74.23"/>
			<path class="st3" d="M1107.62,1269.14h-38.5c-2.66,0-4.83,2.16-4.83,4.83v71.43c0,2.66,2.16,4.83,4.83,4.83h38.5
				c2.66,0,4.83-2.16,4.83-4.83v-71.43C1112.44,1271.3,1110.28,1269.14,1107.62,1269.14z M1088.36,1347.06
				c-1.56,0-2.84-1.26-2.84-2.84c0-1.56,1.28-2.84,2.84-2.84c1.57,0,2.84,1.28,2.84,2.84
				C1091.19,1345.8,1089.93,1347.06,1088.36,1347.06z M1108.2,1338.7h-39.68v-62.41h39.68V1338.7z"/>
		</g>
		<g>
			<circle class="st2" cx="1190.64" cy="1601.45" r="97.42"/>
			<path class="st3" d="M1232.47,1560.3h-83.65c-8.41,0-15.25,6.83-15.25,15.25v46.13c0,8.41,6.83,15.25,15.25,15.25h83.65
				c8.44,0,15.25-6.83,15.25-15.25v-46.13C1247.71,1567.14,1240.9,1560.3,1232.47,1560.3z M1180.77,1615.72v-34.21l29.64,17.1
				L1180.77,1615.72z"/>
		</g>
	</g>
</g>
</svg>
