<?xml version="1.0" encoding="UTF-8"?>
<svg id="Layer_2" data-name="Layer 2" xmlns="http://www.w3.org/2000/svg" viewBox="0 0 1620.82 360.6">
  <defs>
    <style>
      .cls-1 {
        fill: #e04023;
      }

      .cls-2 {
        fill: #000f21;
      }
    </style>
  </defs>
  <g id="Layer_1-2" data-name="Layer 1">
    <g>
      <path class="cls-1" fill="#e04023" d="m307.16,82.06l-39.1-22.58L170.17,2.96c-6.86-3.95-15.28-3.95-22.11,0L11.04,82.06c-6.82,3.95-11.04,11.24-11.04,19.13l.03,158.2c0,7.89,4.21,15.18,11.07,19.13l136.96,79.1c6.82,3.98,15.25,3.98,22.11,0l136.99-79.07c6.82-3.98,11.04-11.27,11.04-19.16V101.19c0-7.89-4.21-15.18-11.04-19.13Zm-39.16,161.11l-108.9,62.84-58.6-33.85,21.54-12.44c22.94-13.21,37.06-37.66,37.06-64.15v-15.22l-108.8,62.81h-.03v-125.72l108.83-62.88,58.7,33.91-21.64,12.48c-22.91,13.24-37.06,37.69-37.06,64.18v15.22l108.9-62.84v125.65Z"/>
      <g>
        <g>
          <path class="cls-2" d="m646.96,238c0,11.2-2.19,21.11-6.57,29.75-4.38,8.64-10.28,16-17.71,22.08-7.42,6.08-15.88,11.2-25.37,15.33-9.48,4.14-19.4,7.42-29.74,9.86-10.35,2.43-20.69,4.13-31.03,5.1-10.35.97-19.89,1.46-28.65,1.46-12.17,0-23.48-.68-33.94-2.01-10.46-1.34-20.75-3.47-30.84-6.39-10.11-2.92-20.45-6.69-31.03-11.31-10.59-4.62-22.21-10.22-34.86-16.8l23.36-49.64c12.17,5.35,23.18,10.04,33.04,14.05,9.85,4.01,18.91,7.36,27.19,10.04,8.27,2.68,15.81,4.69,22.62,6.02,6.82,1.35,13.26,2.01,19.36,2.01,8.26,0,16.79-.6,25.55-1.82,8.76-1.21,16.67-2.98,23.72-5.29,7.06-2.31,12.84-5.35,17.33-9.13,4.5-3.77,6.76-8.22,6.76-13.33s-2.56-8.82-7.67-11.86c-5.1-3.04-12.17-5.53-21.17-7.48-6.33-1.22-13.14-2.25-20.44-3.1-7.3-.85-14.84-1.64-22.63-2.37-4.15-.48-8.39-.91-12.77-1.28-4.38-.37-8.76-.79-13.14-1.28-12.42-1.46-24.76-3.65-37.05-6.57-12.29-2.92-23.31-7.12-33.03-12.6-9.74-5.47-17.58-12.59-23.54-21.35-5.97-8.76-8.95-19.83-8.95-33.22,0-11.19,2.19-20.98,6.57-29.38,4.38-8.4,10.16-15.58,17.33-21.54,7.17-5.96,15.45-10.88,24.82-14.78,9.37-3.89,19.04-6.99,29.03-9.31,9.97-2.31,19.89-3.89,29.74-4.75,9.86-.85,18.92-1.28,27.19-1.28,22.87,0,44.72,2.8,65.52,8.39,20.81,5.6,42.4,14.36,64.79,26.28l-22.27,46.35c-18.98-9.24-37.54-16.11-55.67-20.62-18.13-4.5-35.59-6.75-52.38-6.75-13.13,0-23.91.86-32.3,2.55-8.4,1.7-15.03,3.84-19.89,6.39-4.87,2.55-8.22,5.29-10.04,8.22-1.82,2.92-2.73,5.6-2.73,8.03,0,4.14,2.55,7.55,7.66,10.22,5.12,2.68,11.2,4.75,18.25,6.21,7.06,1.46,14.29,2.5,21.72,3.1,7.42.61,13.56,1.03,18.44,1.28,1.21,0,2.19.06,2.91.19.73.12,1.46.18,2.19.18,8.51.73,17.7,1.64,27.56,2.74,9.85,1.1,19.58,2.74,29.19,4.93,9.62,2.19,18.86,5.11,27.74,8.76,8.88,3.65,16.73,8.39,23.55,14.24,6.8,5.84,12.22,12.95,16.24,21.36,4.01,8.39,6.03,18.43,6.03,30.11Z"/>
          <polygon class="cls-2" points="668.92 168.84 668.92 81.63 742.25 55.86 742.25 119.71 824.91 119.71 824.91 168.84 668.92 168.84"/>
          <path class="cls-2" d="m839.68,287.17c-4.92,4.87-10.79,9.48-17.6,13.67-6.86,4.24-13.78,7.96-20.9,11.05-7.12,3.14-14.25,5.55-21.47,7.18-7.23,1.68-13.72,2.46-19.49,2.46-9.27,0-18.49-1.1-27.6-3.25-9.17-2.2-18.23-6.02-27.24-11.47-5.18-3.3-10-7.33-14.51-12.1-4.51-4.77-8.43-10-11.68-15.77-3.3-5.71-5.81-11.58-7.59-17.6-1.78-5.97-2.67-11.84-2.67-17.6v-74.9l73.33,20.08v45.4c0,5.19.94,9.69,2.83,13.51,1.94,3.82,4.35,6.86,7.39,9.01,3.56,2.72,9.85,4.09,18.86,4.09,1.36,0,3.77-.31,7.33-1,3.56-.68,7.65-1.83,12.31-3.51,4.61-1.62,9.48-3.72,14.51-6.34,5.03-2.57,9.74-5.76,14.14-9.59l20.06,46.67Z"/>
          <path class="cls-2" d="m1114.95,221.24c0,18.57-3.55,34.46-10.65,47.7-7.1,13.25-16.65,24.09-28.66,32.55-12.02,8.46-26,14.68-41.96,18.63-15.97,3.95-32.82,5.93-50.56,5.93s-33.85-2.05-49.95-6.14c-16.11-4.09-30.3-10.44-42.58-19.04-12.29-8.6-22.11-19.5-29.48-32.75-7.37-13.24-11.06-28.86-11.06-46.88s3.68-34.93,11.06-48.31c7.37-13.37,17.19-24.36,29.48-32.96,12.28-8.6,26.47-14.94,42.58-19.03,16.1-4.09,32.75-6.14,49.95-6.14s33.77,2.12,49.74,6.34c15.97,4.24,30.02,10.78,42.17,19.65,12.15,8.87,21.83,20,29.07,33.37,7.23,13.38,10.85,29.07,10.85,47.08Zm-71.24-.41c0-6.55-1.36-12.82-4.08-18.83-2.74-6-6.7-11.19-11.88-15.56-5.18-4.36-11.53-7.84-19.03-10.44-7.5-2.59-16.04-3.89-25.59-3.89s-18.08,1.3-25.59,3.89c-7.51,2.6-13.86,6.07-19.04,10.44-5.19,4.37-9.15,9.49-11.88,15.36-2.72,5.87-4.09,12.22-4.09,19.03,0,6.28,1.37,12.22,4.09,17.81,2.72,5.6,6.68,10.58,11.88,14.95,5.18,4.36,11.53,7.78,19.04,10.24,7.5,2.45,16.03,3.68,25.59,3.68s18.08-1.23,25.59-3.68c7.5-2.46,13.85-5.8,19.03-10.03,5.18-4.22,9.14-9.14,11.88-14.74,2.72-5.59,4.08-11.67,4.08-18.22Z"/>
          <path class="cls-2" d="m1283.68,116.81c-5.71-.79-11.88-1.19-18.38-1.19s-12.28.87-18.06,2.61c-5.71,1.82-11.09,4.04-16.16,6.81-5.07,2.69-9.59,5.7-13.71,8.95-4.12,3.33-7.61,6.34-10.61,9.03v-23.29h-73.28v201.78h73.28v-115.43c2.69-4.12,6.02-8.16,9.98-12.12,3.96-3.88,8.24-7.37,12.68-10.38,4.51-3.01,9.35-5.47,14.58-7.37,5.15-1.9,10.38-2.85,15.53-2.85,5.47,0,11.25,1.11,17.43,3.41,6.1,2.38,10.3,4.99,12.51,8v-66.87c-1.74-.48-3.72-.79-5.78-1.11Z"/>
        </g>
        <path class="cls-1" fill="#e04023" d="m1620.43,310.49l-120.82-135.08,115.04-129.78.48-11.09h-81.05l-79.07,90.87-80.66-90.87h-85.96l-.39,11.09c19.65,22.1,39.46,44.37,59.34,66.87,19.88,22.58,39.85,44.84,59.82,66.95l45,49.99,81.92,92.14h86.75l-.39-11.09Zm-332.44.4l.39,10.7h79.86l83.9-92.14h-90.32l-73.84,81.45Z"/>
      </g>
    </g>
  </g>
</svg>